<svg width="235" height="44" viewBox="0 0 235 44" fill="none" xmlns="http://www.w3.org/2000/svg">
<path d="M65.1088 23.5137H47.6309C47.7742 25.5671 48.3472 27.143 49.4456 28.2891C50.5439 29.4352 51.9765 30.0082 53.7912 30.0082C55.4148 30.0082 56.7519 29.6739 57.8025 29.0054C58.853 28.3368 59.8081 27.2385 60.6199 25.7581L64.8223 28.0981C63.5807 30.2947 62.0525 31.9184 60.2857 33.0167C58.471 34.0673 56.3699 34.6403 53.8867 34.6403C50.4006 34.6403 47.5832 33.5897 45.5298 31.4408C43.4764 29.2919 42.4258 26.4744 42.4258 22.8929C42.4258 19.4546 43.4764 16.6372 45.6253 14.4405C47.7742 12.2438 50.4962 11.1455 53.8867 11.1455C57.4204 11.1455 60.1424 12.1483 62.1003 14.154C64.0582 16.1596 65.061 18.9771 65.061 22.6064V23.5137H65.1088ZM59.9514 20.171C59.7604 18.5951 59.1396 17.4012 58.1367 16.5894C57.1339 15.7776 55.7491 15.3478 54.0299 15.3478C52.4063 15.3478 51.0692 15.7299 50.0664 16.5417C49.0635 17.3535 48.3472 18.5473 47.9652 20.171H59.9514Z" fill="white"/>
<path d="M72.2949 33.6598V16.2297H68.4746V11.8363H72.2949V3.57495H77.309V11.8363H81.1293V16.2297H77.309V33.7075H72.2949V33.6598Z" fill="white"/>
<path d="M106.7 33.733H101.685V30.9155C100.778 32.1571 99.7753 33.1122 98.5815 33.733C97.3876 34.3538 96.0505 34.6403 94.4747 34.6403C91.3707 34.6403 88.9352 33.5897 87.1683 31.4886C85.4015 29.3874 84.4941 26.4744 84.4941 22.7974C84.4941 19.3114 85.4015 16.4939 87.2161 14.345C89.0307 12.1961 91.3707 11.1455 94.3314 11.1455C96.0983 11.1455 97.6264 11.5275 98.9157 12.2438C100.205 13.0079 101.112 14.0585 101.685 15.4433V11.8618H106.7V33.733ZM101.829 22.7497C101.829 20.5052 101.303 18.7383 100.253 17.4967C99.2023 16.2552 97.7219 15.5866 95.8595 15.5866C93.9494 15.5866 92.469 16.2552 91.4184 17.5445C90.3201 18.8339 89.7948 20.6485 89.7948 22.9407C89.7948 25.2806 90.3201 27.0475 91.3707 28.2891C92.4212 29.5307 93.9016 30.1992 95.8118 30.1992C97.6264 30.1992 99.059 29.5307 100.205 28.1458C101.303 26.761 101.829 24.9941 101.829 22.7497Z" fill="white"/>
<path d="M111.617 33.7141V0L117.109 4.77537V28.7955H129.382V33.7141H111.617Z" fill="white"/>
<path d="M132.746 22.8451C132.746 21.2692 133.033 19.7411 133.653 18.3085C134.274 16.8759 135.134 15.6343 136.28 14.536C137.378 13.4376 138.668 12.6258 140.148 12.005C141.628 11.3842 143.156 11.1454 144.732 11.1454C146.356 11.1454 147.932 11.432 149.364 12.005C150.797 12.5781 152.134 13.4376 153.28 14.5837C154.426 15.682 155.286 16.9714 155.907 18.404C156.527 19.8366 156.814 21.317 156.814 22.8451C156.814 24.4687 156.527 25.9491 155.907 27.3817C155.334 28.8143 154.474 30.0559 153.328 31.1542C152.134 32.3003 150.797 33.1599 149.364 33.7807C147.884 34.3537 146.356 34.688 144.78 34.688C143.204 34.688 141.676 34.4015 140.243 33.7807C138.763 33.2076 137.474 32.3481 136.328 31.202C135.182 30.0559 134.322 28.8143 133.701 27.3817C133.033 25.9491 132.746 24.421 132.746 22.8451ZM151.513 22.8929C151.513 20.8872 150.845 19.1681 149.555 17.7355C148.266 16.3506 146.642 15.6343 144.78 15.6343C142.918 15.6343 141.294 16.3506 140.005 17.7355C138.715 19.1203 138.047 20.8394 138.047 22.8929C138.047 24.8985 138.715 26.6176 140.005 28.0503C141.294 29.4351 142.918 30.1514 144.78 30.1514C146.642 30.1514 148.266 29.4351 149.555 28.0503C150.845 26.6176 151.513 24.8985 151.513 22.8929Z" fill="white"/>
<path d="M182.431 32.3481C182.431 36.5982 181.571 39.6066 179.852 41.3735C178.133 43.0927 175.268 44 171.257 44C168.248 44 165.86 43.3792 164.046 42.0898C162.231 40.8005 161.324 39.1291 161.324 37.0279H166.672C166.768 37.983 167.198 38.6993 167.962 39.1769C168.773 39.6544 169.872 39.8932 171.304 39.8932C173.453 39.8932 174.981 39.4156 175.889 38.5083C176.844 37.5532 177.321 36.0251 177.321 33.8284L177.369 30.9155C176.462 32.1571 175.459 33.1121 174.265 33.7329C173.071 34.3537 171.734 34.6403 170.158 34.6403C167.054 34.6403 164.667 33.5897 162.852 31.4885C161.037 29.3873 160.178 26.4744 160.178 22.7973C160.178 19.3113 161.085 16.4939 162.9 14.3449C164.714 12.196 167.054 11.1454 170.015 11.1454C171.782 11.1454 173.31 11.5275 174.599 12.2438C175.889 13.0078 176.796 14.0584 177.369 15.4433V11.8618H182.383V32.3481H182.431ZM177.56 22.7018C177.56 20.4574 177.035 18.6905 175.984 17.4489C174.934 16.2073 173.453 15.5388 171.591 15.5388C169.681 15.5388 168.2 16.2073 167.15 17.4967C166.051 18.786 165.526 20.6007 165.526 22.8928C165.526 25.2328 166.051 26.9997 167.102 28.2413C168.153 29.4829 169.633 30.1514 171.543 30.1514C173.358 30.1514 174.79 29.4829 175.936 28.098C177.035 26.7131 177.56 24.9463 177.56 22.7018Z" fill="white"/>
<path d="M213.419 18.0697C212.655 17.2102 211.748 16.5894 210.745 16.1118C209.742 15.682 208.644 15.4433 207.45 15.4433C205.397 15.4433 203.773 16.1118 202.532 17.4012C201.29 18.7383 200.669 20.4574 200.669 22.6541C200.669 24.9463 201.29 26.7131 202.532 28.0025C203.773 29.2918 205.492 29.9604 207.641 29.9604C208.835 29.9604 209.933 29.7216 210.888 29.2918C211.843 28.8621 212.655 28.1458 213.419 27.2384V33.0166C212.512 33.5419 211.509 33.924 210.459 34.2105C209.408 34.4492 208.31 34.5925 207.116 34.5925C203.678 34.5925 200.908 33.4942 198.759 31.3453C196.61 29.1486 195.512 26.3311 195.512 22.8928C195.512 19.3591 196.61 16.5416 198.854 14.3927C201.099 12.2438 204.012 11.1454 207.641 11.1454C208.787 11.1454 209.838 11.241 210.793 11.4797C211.748 11.7185 212.655 12.0528 213.467 12.4826V18.0697H213.419Z" fill="white"/>
<path d="M216.832 29.7694L220.987 27.525C221.273 28.6233 221.846 29.4351 222.706 30.0081C223.565 30.5812 224.616 30.8677 225.905 30.8677C227.004 30.8677 227.911 30.6289 228.532 30.1037C229.152 29.5784 229.487 28.9098 229.487 28.0025C229.487 26.8087 228.341 25.8058 226.096 24.9463C225.332 24.6597 224.759 24.421 224.329 24.2777C221.989 23.3226 220.366 22.3198 219.458 21.317C218.551 20.3142 218.074 19.1203 218.074 17.6877C218.074 15.7298 218.838 14.1539 220.366 12.9601C221.894 11.7662 223.9 11.1454 226.431 11.1454C228.102 11.1454 229.582 11.4797 230.776 12.1005C231.97 12.7213 232.877 13.6286 233.403 14.7747L229.869 17.2102C229.63 16.5416 229.152 15.9686 228.484 15.5865C227.815 15.2045 227.051 14.9657 226.192 14.9657C225.237 14.9657 224.473 15.2045 223.9 15.6343C223.327 16.0641 223.04 16.6849 223.04 17.4489C223.04 18.595 224.329 19.6456 226.908 20.5529C227.72 20.8394 228.341 21.0782 228.818 21.2692C230.824 22.081 232.256 22.9884 233.116 23.9912C233.976 24.994 234.405 26.2356 234.405 27.7637C234.405 29.9604 233.594 31.6318 232.018 32.8734C230.442 34.115 228.245 34.7358 225.475 34.7358C223.327 34.7358 221.56 34.3537 220.175 33.5419C218.742 32.6346 217.596 31.4408 216.832 29.7694Z" fill="white"/>
<path d="M186.465 33.8307V12.0073H191.479V33.8307H186.465Z" fill="white"/>
<path d="M185.797 5.41722C185.797 4.55766 186.131 3.84135 186.752 3.22055C187.373 2.59975 188.137 2.31323 188.996 2.31323C189.904 2.31323 190.62 2.59975 191.241 3.22055C191.814 3.79359 192.148 4.55766 192.148 5.46498C192.148 6.3723 191.862 7.0886 191.241 7.7094C190.62 8.3302 189.904 8.61672 189.044 8.61672C188.185 8.61672 187.42 8.28244 186.8 7.66164C186.083 7.04084 185.797 6.27679 185.797 5.41722Z" fill="#1877F2"/>
<path d="M39.0619 2.73383V35.1108H33.5703V15.9616L24.0673 25.5123L20.1992 21.6443L33.5703 8.2255L39.0619 2.73383Z" fill="white"/>
<path d="M31.1832 35.1108H23.3993L17.9554 29.6191L5.49167 17.1554V35.1108H0V3.92767L31.1832 35.1108Z" fill="white"/>
</svg>
